<?xml version="1.0" encoding="utf-8"?>
<!-- Generator: Adobe Illustrator 23.0.4, SVG Export Plug-In . SVG Version: 6.00 Build 0)  -->
<svg version="1.1" id="Layer_1" xmlns="http://www.w3.org/2000/svg" xmlns:xlink="http://www.w3.org/1999/xlink" x="0px" y="0px"
	 viewBox="0 0 114 18" style="enable-background:new 0 0 114 18;" xml:space="preserve">
<style type="text/css">
	.st0{fill:#F2A200;}
	.st1{fill:#FC6D00;}
</style>
<g>
	<path class="st0" d="M13.13,1.95l5.87,10.17c1.08,1.87,0.43,4.27-1.43,5.35l0,0c-1.87,1.08-4.27,0.43-5.35-1.43L6.35,5.87
		C5.28,4.01,5.92,1.6,7.79,0.52l0,0C9.65-0.56,12.06,0.09,13.13,1.95z"/>
	<circle class="st1" cx="3.92" cy="14.08" r="3.92"/>
</g>
<g>
	<path d="M34.66,13.21c-0.27,0.28-0.58,0.53-0.91,0.76c-0.33,0.23-0.68,0.42-1.06,0.58c-0.72,0.3-1.5,0.45-2.33,0.45
		c-0.55,0-1.08-0.07-1.59-0.21c-0.51-0.14-0.99-0.34-1.43-0.6c-0.45-0.26-0.85-0.57-1.22-0.94c-0.37-0.37-0.68-0.77-0.94-1.22
		c-0.26-0.44-0.47-0.92-0.61-1.43S24.35,9.56,24.35,9c0-0.55,0.07-1.08,0.21-1.59c0.14-0.51,0.35-0.98,0.61-1.43
		c0.26-0.44,0.57-0.85,0.94-1.22c0.37-0.37,0.77-0.68,1.22-0.94c0.44-0.26,0.92-0.46,1.43-0.61C29.28,3.07,29.81,3,30.36,3
		c0.83,0,1.6,0.16,2.33,0.47c0.38,0.16,0.73,0.35,1.06,0.57c0.33,0.23,0.63,0.49,0.91,0.77c0.07,0.07,0.11,0.14,0.14,0.21
		c0.03,0.07,0.05,0.14,0.05,0.2c0,0.14-0.05,0.27-0.16,0.37c-0.11,0.11-0.23,0.16-0.37,0.16c-0.07,0-0.14-0.02-0.21-0.05
		c-0.07-0.03-0.14-0.08-0.2-0.15c-0.48-0.47-1.02-0.84-1.62-1.11c-0.3-0.13-0.61-0.22-0.92-0.29c-0.32-0.07-0.65-0.1-1-0.1
		c-0.45,0-0.89,0.06-1.3,0.18c-0.42,0.12-0.82,0.29-1.18,0.5c-0.37,0.22-0.71,0.48-1.01,0.78c-0.3,0.3-0.56,0.63-0.77,1
		c-0.22,0.37-0.39,0.77-0.5,1.18C25.47,8.11,25.41,8.55,25.41,9c0,0.46,0.06,0.9,0.18,1.31c0.12,0.42,0.28,0.82,0.5,1.18
		c0.21,0.37,0.47,0.7,0.77,1c0.3,0.31,0.64,0.56,1.01,0.78c0.37,0.22,0.76,0.39,1.18,0.5c0.42,0.12,0.85,0.18,1.3,0.18
		c0.69,0,1.33-0.12,1.92-0.37c0.62-0.27,1.16-0.65,1.62-1.13c0.12-0.12,0.26-0.18,0.4-0.18c0.14,0,0.27,0.05,0.37,0.16l0.16,0.37
		C34.85,12.93,34.78,13.07,34.66,13.21z"/>
	<path d="M36.9,14.8c-0.11,0.09-0.23,0.14-0.37,0.14c-0.13,0-0.25-0.05-0.36-0.14C36.06,14.71,36,14.57,36,14.37V3.63
		c0-0.19,0.06-0.33,0.17-0.42c0.11-0.09,0.23-0.14,0.36-0.14c0.13,0,0.25,0.05,0.37,0.14c0.11,0.09,0.17,0.23,0.17,0.42v10.75
		C37.06,14.57,37.01,14.71,36.9,14.8z"/>
	<path d="M46.5,11.04c-0.03,0.07-0.07,0.12-0.12,0.17c-0.05,0.05-0.11,0.09-0.17,0.12c-0.07,0.03-0.13,0.05-0.2,0.05h-6.68
		c0.08,0.37,0.21,0.7,0.4,1.01c0.19,0.32,0.42,0.58,0.7,0.81c0.27,0.23,0.58,0.41,0.92,0.53c0.34,0.13,0.7,0.19,1.08,0.19
		c0.22,0,0.44-0.02,0.65-0.07c0.21-0.04,0.41-0.1,0.6-0.18c0.4-0.17,0.75-0.41,1.05-0.73c0.06-0.07,0.13-0.12,0.2-0.15
		c0.07-0.03,0.13-0.04,0.21-0.04c0.14,0,0.27,0.05,0.37,0.15c0.1,0.1,0.15,0.22,0.15,0.37c0,0.13-0.06,0.26-0.17,0.4
		c-0.19,0.2-0.41,0.39-0.65,0.55c-0.24,0.16-0.49,0.3-0.76,0.42c-0.25,0.11-0.52,0.19-0.79,0.24c-0.28,0.06-0.57,0.08-0.87,0.08
		c-0.39,0-0.76-0.05-1.11-0.15c-0.36-0.1-0.69-0.24-1-0.43c-0.32-0.18-0.6-0.4-0.85-0.66c-0.26-0.25-0.48-0.54-0.66-0.85
		c-0.18-0.31-0.33-0.64-0.43-1c-0.1-0.36-0.15-0.73-0.15-1.11c0-0.58,0.11-1.13,0.33-1.64c0.21-0.51,0.51-0.95,0.88-1.34
		c0.37-0.38,0.81-0.68,1.32-0.91c0.51-0.22,1.05-0.34,1.63-0.34c0.58,0,1.13,0.11,1.62,0.33c0.5,0.22,0.94,0.53,1.31,0.91
		c0.39,0.4,0.69,0.84,0.9,1.34c0.21,0.5,0.32,1.03,0.32,1.58v0.14C46.54,10.92,46.53,10.98,46.5,11.04z M45.15,9.33
		c-0.15-0.3-0.34-0.57-0.58-0.82c-0.28-0.28-0.61-0.5-0.98-0.66c-0.37-0.16-0.77-0.24-1.21-0.24c-0.39,0-0.76,0.07-1.11,0.21
		s-0.66,0.33-0.93,0.56c-0.27,0.24-0.5,0.52-0.68,0.85c-0.18,0.33-0.3,0.69-0.35,1.08h6.14C45.4,9.97,45.3,9.64,45.15,9.33z"/>
	<path d="M53.46,6.68c0.1-0.06,0.19-0.09,0.29-0.09c0.13,0,0.24,0.05,0.34,0.14c0.1,0.09,0.14,0.22,0.14,0.38v0.12
		c-0.01,0.04-0.02,0.08-0.03,0.13l-3.16,7.23c-0.05,0.1-0.11,0.18-0.2,0.22c-0.09,0.05-0.18,0.08-0.28,0.08s-0.2-0.03-0.28-0.08
		c-0.09-0.05-0.16-0.12-0.21-0.22l-3.14-7.23c-0.02-0.04-0.03-0.08-0.03-0.13c-0.01-0.04-0.02-0.08-0.02-0.11
		c0-0.16,0.06-0.28,0.17-0.37c0.11-0.09,0.23-0.14,0.36-0.14c0.1,0,0.19,0.03,0.27,0.08c0.09,0.05,0.16,0.13,0.21,0.25l2.65,6.12
		l2.67-6.12C53.28,6.83,53.36,6.75,53.46,6.68z"/>
	<path d="M62.85,11.04c-0.03,0.07-0.07,0.12-0.12,0.17c-0.05,0.05-0.11,0.09-0.17,0.12c-0.07,0.03-0.13,0.05-0.2,0.05h-6.68
		c0.08,0.37,0.21,0.7,0.4,1.01c0.19,0.32,0.42,0.58,0.7,0.81c0.27,0.23,0.58,0.41,0.92,0.53c0.34,0.13,0.7,0.19,1.08,0.19
		c0.22,0,0.44-0.02,0.65-0.07c0.21-0.04,0.41-0.1,0.6-0.18c0.4-0.17,0.75-0.41,1.05-0.73c0.06-0.07,0.13-0.12,0.2-0.15
		c0.07-0.03,0.13-0.04,0.21-0.04c0.14,0,0.27,0.05,0.37,0.15c0.1,0.1,0.15,0.22,0.15,0.37c0,0.13-0.06,0.26-0.17,0.4
		c-0.19,0.2-0.41,0.39-0.65,0.55c-0.24,0.16-0.49,0.3-0.76,0.42c-0.25,0.11-0.52,0.19-0.79,0.24c-0.28,0.06-0.57,0.08-0.87,0.08
		c-0.39,0-0.76-0.05-1.11-0.15c-0.36-0.1-0.69-0.24-1-0.43c-0.32-0.18-0.6-0.4-0.85-0.66c-0.26-0.25-0.48-0.54-0.66-0.85
		c-0.18-0.31-0.33-0.64-0.43-1s-0.15-0.73-0.15-1.11c0-0.58,0.11-1.13,0.33-1.64c0.21-0.51,0.51-0.95,0.88-1.34
		c0.37-0.38,0.81-0.68,1.32-0.91c0.51-0.22,1.05-0.34,1.63-0.34c0.58,0,1.13,0.11,1.62,0.33c0.5,0.22,0.94,0.53,1.31,0.91
		c0.39,0.4,0.69,0.84,0.9,1.34c0.21,0.5,0.32,1.03,0.32,1.58v0.14C62.9,10.92,62.88,10.98,62.85,11.04z M61.51,9.33
		c-0.15-0.3-0.34-0.57-0.58-0.82c-0.28-0.28-0.61-0.5-0.98-0.66c-0.37-0.16-0.77-0.24-1.21-0.24c-0.39,0-0.76,0.07-1.11,0.21
		s-0.66,0.33-0.93,0.56c-0.27,0.24-0.5,0.52-0.68,0.85c-0.18,0.33-0.3,0.69-0.35,1.08h6.14C61.76,9.97,61.66,9.64,61.51,9.33z"/>
	<path d="M68.1,7.51c-0.09,0.11-0.23,0.17-0.42,0.17c-0.35,0-0.68,0.07-0.99,0.21s-0.58,0.32-0.82,0.56
		c-0.23,0.23-0.42,0.5-0.55,0.8c-0.13,0.31-0.2,0.64-0.2,1v4.13c0,0.2-0.06,0.34-0.17,0.43c-0.11,0.09-0.23,0.14-0.37,0.14
		c-0.13,0-0.25-0.05-0.36-0.14c-0.11-0.09-0.17-0.23-0.17-0.43v-4.13c0-0.5,0.09-0.97,0.28-1.4c0.19-0.43,0.45-0.81,0.78-1.14
		c0.33-0.33,0.71-0.59,1.15-0.78c0.44-0.19,0.91-0.28,1.41-0.28c0.19,0,0.33,0.05,0.42,0.15l0.14,0.36
		C68.24,7.27,68.2,7.4,68.1,7.51z"/>
	<path d="M76.83,14.8c-0.11,0.09-0.23,0.14-0.36,0.14c-0.13,0-0.25-0.05-0.36-0.14c-0.11-0.09-0.17-0.23-0.17-0.43v-2.62h-5.49v2.62
		c0,0.2-0.06,0.34-0.17,0.43c-0.11,0.09-0.23,0.14-0.37,0.14c-0.13,0-0.25-0.05-0.36-0.14c-0.11-0.09-0.17-0.23-0.17-0.43V6.91
		c0-0.52,0.1-1.02,0.31-1.48c0.2-0.46,0.47-0.86,0.82-1.21c0.34-0.34,0.74-0.61,1.21-0.81c0.46-0.2,0.95-0.3,1.46-0.3
		c0.52,0,1.02,0.1,1.48,0.3c0.46,0.2,0.87,0.47,1.21,0.81c0.34,0.35,0.61,0.75,0.81,1.21c0.2,0.46,0.3,0.96,0.3,1.48v7.47
		C76.99,14.57,76.94,14.71,76.83,14.8z M75.95,6.91c0-0.38-0.07-0.73-0.21-1.07c-0.15-0.33-0.35-0.62-0.6-0.87s-0.54-0.45-0.87-0.6
		c-0.34-0.14-0.69-0.21-1.08-0.21c-0.38,0-0.73,0.07-1.06,0.21c-0.33,0.15-0.62,0.35-0.86,0.6c-0.25,0.25-0.44,0.55-0.59,0.88
		c-0.15,0.34-0.22,0.69-0.22,1.06v3.78h5.49V6.91z"/>
	<path d="M86.12,12.38c-0.22,0.5-0.52,0.94-0.89,1.31c-0.38,0.38-0.82,0.67-1.32,0.89c-0.5,0.22-1.04,0.33-1.62,0.33
		c-0.38,0-0.75-0.05-1.1-0.15c-0.35-0.1-0.68-0.24-0.98-0.42c-0.31-0.18-0.59-0.39-0.84-0.65c-0.25-0.25-0.47-0.53-0.65-0.84
		c-0.18-0.31-0.32-0.63-0.41-0.98c-0.1-0.35-0.15-0.72-0.15-1.1c0-0.57,0.11-1.11,0.33-1.61c0.21-0.5,0.51-0.94,0.88-1.32
		c0.37-0.37,0.81-0.67,1.31-0.88c0.5-0.21,1.04-0.32,1.61-0.32c0.62,0,1.2,0.12,1.72,0.37S85,7.58,85.38,8V3.63
		c0-0.19,0.06-0.33,0.17-0.42c0.11-0.09,0.23-0.14,0.36-0.14c0.13,0,0.25,0.05,0.37,0.14c0.11,0.09,0.17,0.23,0.17,0.42v7.14
		C86.44,11.34,86.33,11.87,86.12,12.38z M85.14,9.56c-0.16-0.37-0.38-0.7-0.66-0.98c-0.28-0.28-0.61-0.5-0.98-0.66
		c-0.38-0.16-0.78-0.24-1.21-0.24c-0.42,0-0.82,0.08-1.19,0.24c-0.38,0.16-0.7,0.38-0.98,0.66c-0.28,0.28-0.5,0.61-0.66,0.98
		c-0.16,0.38-0.24,0.78-0.24,1.21s0.08,0.83,0.24,1.21c0.16,0.38,0.38,0.7,0.66,0.98c0.27,0.28,0.6,0.5,0.98,0.66
		c0.37,0.16,0.77,0.24,1.19,0.24c0.43,0,0.83-0.08,1.21-0.24c0.37-0.16,0.7-0.38,0.98-0.66c0.28-0.28,0.5-0.61,0.66-0.98l0.24-1.21
		C85.38,10.34,85.3,9.94,85.14,9.56z"/>
	<path d="M95.57,12.38c-0.22,0.5-0.52,0.94-0.89,1.31c-0.38,0.38-0.82,0.67-1.32,0.89c-0.5,0.22-1.04,0.33-1.62,0.33
		c-0.38,0-0.75-0.05-1.1-0.15c-0.35-0.1-0.68-0.24-0.98-0.42c-0.31-0.18-0.59-0.39-0.84-0.65c-0.25-0.25-0.47-0.53-0.65-0.84
		c-0.18-0.31-0.32-0.63-0.41-0.98c-0.1-0.35-0.15-0.72-0.15-1.1c0-0.57,0.11-1.11,0.33-1.61c0.21-0.5,0.51-0.94,0.88-1.32
		c0.37-0.37,0.81-0.67,1.31-0.88c0.5-0.21,1.04-0.32,1.61-0.32c0.62,0,1.2,0.12,1.72,0.37c0.53,0.24,0.99,0.58,1.37,1.01V3.63
		c0-0.19,0.06-0.33,0.17-0.42c0.11-0.09,0.23-0.14,0.36-0.14s0.25,0.05,0.37,0.14c0.11,0.09,0.17,0.23,0.17,0.42v7.14
		C95.9,11.34,95.79,11.87,95.57,12.38z M94.59,9.56c-0.16-0.37-0.38-0.7-0.66-0.98c-0.28-0.28-0.61-0.5-0.98-0.66
		c-0.38-0.16-0.78-0.24-1.21-0.24c-0.42,0-0.82,0.08-1.19,0.24c-0.38,0.16-0.7,0.38-0.98,0.66c-0.28,0.28-0.5,0.61-0.66,0.98
		c-0.16,0.38-0.24,0.78-0.24,1.21s0.08,0.83,0.24,1.21s0.38,0.7,0.66,0.98c0.27,0.28,0.6,0.5,0.98,0.66
		c0.37,0.16,0.77,0.24,1.19,0.24c0.43,0,0.83-0.08,1.21-0.24c0.37-0.16,0.7-0.38,0.98-0.66c0.28-0.28,0.5-0.61,0.66-0.98l0.24-1.21
		C94.84,10.34,94.76,9.94,94.59,9.56z"/>
	<path d="M105.16,12.4c-0.22,0.51-0.53,0.95-0.91,1.34c-0.39,0.38-0.83,0.68-1.34,0.9c-0.51,0.22-1.06,0.34-1.64,0.34
		c-0.39,0-0.76-0.05-1.11-0.15c-0.36-0.1-0.69-0.24-1-0.43c-0.32-0.18-0.6-0.4-0.85-0.66c-0.26-0.25-0.48-0.54-0.66-0.85
		c-0.18-0.31-0.33-0.64-0.43-1s-0.15-0.73-0.15-1.11c0-0.58,0.11-1.13,0.34-1.64c0.22-0.51,0.52-0.96,0.9-1.34
		c0.38-0.38,0.83-0.68,1.34-0.91c0.51-0.22,1.05-0.33,1.63-0.33s1.13,0.11,1.64,0.33c0.51,0.22,0.96,0.53,1.34,0.91
		c0.38,0.38,0.68,0.83,0.91,1.34l0.33,1.64C105.49,11.35,105.38,11.89,105.16,12.4z M104.19,9.55c-0.17-0.38-0.39-0.72-0.68-1.01
		c-0.29-0.29-0.63-0.51-1.01-0.68c-0.39-0.16-0.8-0.24-1.23-0.24s-0.84,0.08-1.22,0.24c-0.38,0.17-0.71,0.39-1,0.68
		c-0.29,0.29-0.52,0.63-0.68,1.01c-0.17,0.38-0.25,0.79-0.25,1.22c0,0.44,0.08,0.85,0.25,1.23c0.16,0.38,0.39,0.71,0.68,1
		c0.28,0.29,0.62,0.52,1,0.68c0.38,0.17,0.79,0.25,1.22,0.25s0.84-0.08,1.23-0.25c0.38-0.16,0.72-0.39,1.01-0.68
		c0.28-0.29,0.51-0.62,0.68-1l0.24-1.23C104.43,10.33,104.35,9.93,104.19,9.55z"/>
	<path d="M113.72,14.8c-0.11,0.09-0.23,0.14-0.37,0.14s-0.25-0.05-0.37-0.14c-0.11-0.09-0.17-0.23-0.17-0.43v-4.13
		c0-0.35-0.07-0.68-0.2-1c-0.13-0.31-0.31-0.58-0.54-0.82c-0.23-0.23-0.5-0.41-0.81-0.55c-0.31-0.13-0.64-0.2-0.99-0.2
		s-0.68,0.07-0.99,0.2c-0.32,0.14-0.59,0.32-0.82,0.55c-0.23,0.23-0.42,0.51-0.55,0.82c-0.14,0.32-0.21,0.65-0.21,1v4.13
		c0,0.2-0.06,0.34-0.17,0.43c-0.11,0.09-0.23,0.14-0.37,0.14s-0.25-0.05-0.36-0.14c-0.11-0.09-0.17-0.23-0.17-0.43v-4.13
		c0-0.49,0.1-0.96,0.29-1.4c0.19-0.44,0.45-0.82,0.78-1.14c0.33-0.33,0.71-0.58,1.15-0.78c0.44-0.19,0.91-0.28,1.4-0.28
		c0.49,0,0.96,0.09,1.4,0.28c0.44,0.19,0.82,0.45,1.14,0.78s0.58,0.71,0.78,1.14c0.19,0.44,0.28,0.91,0.28,1.4v4.13
		C113.89,14.57,113.83,14.71,113.72,14.8z"/>
</g>
</svg>
