<svg id="Layer_1" data-name="Layer 1" xmlns="http://www.w3.org/2000/svg" viewBox="0 0 197 55"><defs><style>.cls-1{fill:#fc6d00;}.cls-2{fill:#fff;}</style></defs><title>clever-addon</title><rect class="cls-1" width="197" height="55"/><path class="cls-2" d="M38.23,17.46l8.15,14.12a5.46,5.46,0,0,1-2,7.43h0A5.46,5.46,0,0,1,37,37L28.82,22.9a5.44,5.44,0,0,1,2-7.42h0A5.43,5.43,0,0,1,38.23,17.46Z"/><circle class="cls-2" cx="25.44" cy="34.31" r="5.44"/><path class="cls-2" d="M67.78,31.83a1.17,1.17,0,0,1-.09.48,1.71,1.71,0,0,1-.32.47,7.91,7.91,0,0,1-1.21,1,9,9,0,0,1-1.39.77,7.69,7.69,0,0,1-1.5.47,8.53,8.53,0,0,1-1.61.15,7.84,7.84,0,0,1-2.11-.29,8.24,8.24,0,0,1-1.9-.81,7.89,7.89,0,0,1-2.86-2.84A8.5,8.5,0,0,1,54,29.33a7.82,7.82,0,0,1,0-4.22,8.43,8.43,0,0,1,.81-1.9,8,8,0,0,1,2.86-2.85,8.4,8.4,0,0,1,1.9-.8,7.32,7.32,0,0,1,2.11-.29,7.78,7.78,0,0,1,1.61.16,8.15,8.15,0,0,1,1.47.46,8.77,8.77,0,0,1,1.42.76,8.65,8.65,0,0,1,1.21,1,1.57,1.57,0,0,1,.32.47,1.69,1.69,0,0,1,.09.48,1.07,1.07,0,0,1-.09.47,1.21,1.21,0,0,1-.28.39,1.07,1.07,0,0,1-.4.26,1.19,1.19,0,0,1-.49.1,1.14,1.14,0,0,1-.47-.1,1.69,1.69,0,0,1-.47-.33,6.25,6.25,0,0,0-1.79-1.24,5,5,0,0,0-1-.32,5.65,5.65,0,0,0-1.11-.11,5.21,5.21,0,0,0-2.11.43,5.41,5.41,0,0,0-1.74,1.18,5.76,5.76,0,0,0-1.18,1.74,5.21,5.21,0,0,0-.43,2.11,5.14,5.14,0,0,0,.43,2.11,5.52,5.52,0,0,0,1.18,1.74,5.31,5.31,0,0,0,1.74,1.16,5.14,5.14,0,0,0,2.11.43,5.72,5.72,0,0,0,1.11-.11,5,5,0,0,0,1-.3A6.06,6.06,0,0,0,65.58,31a1.79,1.79,0,0,1,.47-.35,1.23,1.23,0,0,1,.47-.11,1.19,1.19,0,0,1,.49.1,1.32,1.32,0,0,1,.4.28,1.44,1.44,0,0,1,.28.4Z"/><path class="cls-2" d="M71.78,33.81a1.51,1.51,0,0,1-.09.58,1.26,1.26,0,0,1-.29.42,1.22,1.22,0,0,1-.41.25,1.33,1.33,0,0,1-.91,0,1.13,1.13,0,0,1-.41-.25,1.22,1.22,0,0,1-.27-.42,1.5,1.5,0,0,1-.12-.58V20.67a1.46,1.46,0,0,1,.12-.58,1.12,1.12,0,0,1,.27-.43.91.91,0,0,1,.41-.25,1.2,1.2,0,0,1,.91,0,1,1,0,0,1,.41.25,1.79,1.79,0,0,1,.29.43,1.47,1.47,0,0,1,.09.58Z"/><path class="cls-2" d="M84.7,29.42a.83.83,0,0,1-.13.44,1.24,1.24,0,0,1-.29.4,1.17,1.17,0,0,1-.4.3,1.12,1.12,0,0,1-.47.11H76.05a3.27,3.27,0,0,0,.48.78,3.58,3.58,0,0,0,.68.61,3.4,3.4,0,0,0,.82.38,2.83,2.83,0,0,0,.93.14h3a2,2,0,0,1,.59.1A1.22,1.22,0,0,1,83,33a1.37,1.37,0,0,1,.25.41,1.13,1.13,0,0,1,.09.45,1.22,1.22,0,0,1-.09.46,1,1,0,0,1-.25.4,1.2,1.2,0,0,1-.41.28,1.51,1.51,0,0,1-.59.11H79a5.47,5.47,0,0,1-2.22-.45,6.24,6.24,0,0,1-1.82-1.24,5.9,5.9,0,0,1-1.21-1.83,5.92,5.92,0,0,1,0-4.48,6.32,6.32,0,0,1,1.21-1.84A5.88,5.88,0,0,1,76.74,24a5.61,5.61,0,0,1,4.45,0A5.76,5.76,0,0,1,83,25.27a6.11,6.11,0,0,1,1.22,1.87ZM82,28.14a2.89,2.89,0,0,0-.48-.86,3.92,3.92,0,0,0-.68-.67,3.64,3.64,0,0,0-.86-.43A3.12,3.12,0,0,0,79,26a2.64,2.64,0,0,0-1,.17,3.64,3.64,0,0,0-.86.43,2.92,2.92,0,0,0-.7.66,3.13,3.13,0,0,0-.47.86h6Z"/><path class="cls-2" d="M95.32,24.85a1.3,1.3,0,0,1-.14.61l-3.86,9.07a1.06,1.06,0,0,1-.47.53,1.46,1.46,0,0,1-1.33,0,1,1,0,0,1-.47-.53l-3.87-9.07a1.74,1.74,0,0,1-.12-.61,1.18,1.18,0,0,1,.11-.5,1.41,1.41,0,0,1,.29-.4,1,1,0,0,1,.41-.25,1.24,1.24,0,0,1,.47-.1,1.13,1.13,0,0,1,.64.21,1.43,1.43,0,0,1,.5.65l2.72,6.43,2.71-6.43a1.32,1.32,0,0,1,.5-.64,1.3,1.3,0,0,1,.66-.19,1.15,1.15,0,0,1,.47.09A1.13,1.13,0,0,1,95,24a1.88,1.88,0,0,1,.29.39Z"/><path class="cls-2" d="M107.08,29.42a.91.91,0,0,1-.12.44,1.41,1.41,0,0,1-.29.4,1.12,1.12,0,0,1-.41.3,1.08,1.08,0,0,1-.47.11H98.43a3.3,3.3,0,0,0,1.17,1.39,3.4,3.4,0,0,0,.82.38,2.83,2.83,0,0,0,.93.14h3a1.94,1.94,0,0,1,.58.1,1.17,1.17,0,0,1,.42.29,1.61,1.61,0,0,1,.25.41,1.33,1.33,0,0,1,.08.45,1.44,1.44,0,0,1-.08.46,1.18,1.18,0,0,1-.25.4,1.15,1.15,0,0,1-.42.28,1.46,1.46,0,0,1-.58.11h-3a5.55,5.55,0,0,1-2.23-.45,6.06,6.06,0,0,1-1.81-1.24,5.56,5.56,0,0,1-1.21-1.83,5.8,5.8,0,0,1,0-4.48,5.94,5.94,0,0,1,1.21-1.84A5.72,5.72,0,0,1,99.15,24a5.6,5.6,0,0,1,2.23-.46,5.48,5.48,0,0,1,2.22.46,5.76,5.76,0,0,1,1.8,1.27,6.14,6.14,0,0,1,1.23,1.87Zm-2.72-1.28a3.1,3.1,0,0,0-.47-.86,3.92,3.92,0,0,0-.68-.67,3.84,3.84,0,0,0-.86-.43,3.24,3.24,0,0,0-1.95,0,3.64,3.64,0,0,0-.86.43,2.92,2.92,0,0,0-.69.67,2.77,2.77,0,0,0-.47.86Z"/><path class="cls-2" d="M115,25a1.25,1.25,0,0,1-.09.46,1,1,0,0,1-.25.4,1.09,1.09,0,0,1-.41.29,1.51,1.51,0,0,1-.59.11,2.48,2.48,0,0,0-1,.2,3,3,0,0,0-.82.55,2.83,2.83,0,0,0-.55.81,2.33,2.33,0,0,0-.21,1v5.07a1.52,1.52,0,0,1-.1.59,1.09,1.09,0,0,1-.29.41,1,1,0,0,1-.4.25,1.22,1.22,0,0,1-.92,0,1,1,0,0,1-.4-.25,1.35,1.35,0,0,1-.28-.41,1.51,1.51,0,0,1-.11-.59V28.76a4.93,4.93,0,0,1,.4-2,5,5,0,0,1,1.09-1.6,5.18,5.18,0,0,1,1.61-1.08,4.66,4.66,0,0,1,2-.39,1.52,1.52,0,0,1,.59.1,1,1,0,0,1,.41.29,1.07,1.07,0,0,1,.25.4Z"/><path class="cls-2" d="M127,33.81a2,2,0,0,1-.09.58,1.26,1.26,0,0,1-.29.42,1.61,1.61,0,0,1-.41.25,1.39,1.39,0,0,1-.46.08,1.5,1.5,0,0,1-.47-.08,1.18,1.18,0,0,1-.4-.25,1.13,1.13,0,0,1-.29-.42,1.5,1.5,0,0,1-.11-.58V31.18H119v2.63a1.5,1.5,0,0,1-.1.58,1.26,1.26,0,0,1-.29.42,1.18,1.18,0,0,1-.4.25,1.54,1.54,0,0,1-.46.08,1.44,1.44,0,0,1-.46-.08,1.18,1.18,0,0,1-.4-.25,1.4,1.4,0,0,1-.28-.42,1.5,1.5,0,0,1-.11-.58V24.67a5.2,5.2,0,0,1,.41-2A5.58,5.58,0,0,1,118,21a5.24,5.24,0,0,1,1.67-1.13,4.93,4.93,0,0,1,2-.41,5,5,0,0,1,2,.41,5.27,5.27,0,0,1,2.81,2.81,5,5,0,0,1,.42,2v9.14Zm-2.52-5.13v-4a2.72,2.72,0,0,0-.21-1.07,2.78,2.78,0,0,0-.59-.88,2.73,2.73,0,0,0-1.94-.79,2.76,2.76,0,0,0-1.07.21,2.94,2.94,0,0,0-.87.6,2.73,2.73,0,0,0-.59.87,2.55,2.55,0,0,0-.22,1.06v4Z"/><path class="cls-2" d="M139.86,29.4a5.23,5.23,0,0,1-.21,1.5,5.76,5.76,0,0,1-.57,1.35,5.53,5.53,0,0,1-.89,1.15,6.11,6.11,0,0,1-1.15.89,6,6,0,0,1-1.35.57,5.43,5.43,0,0,1-1.5.21,5.23,5.23,0,0,1-1.5-.21,5.76,5.76,0,0,1-1.35-.57,6.11,6.11,0,0,1-1.15-.89,5,5,0,0,1-.89-1.15,5.79,5.79,0,0,1-.58-1.35,5.28,5.28,0,0,1-.21-1.5,5.54,5.54,0,0,1,.45-2.22,5.7,5.7,0,0,1,3-3,5.71,5.71,0,0,1,2.21-.45,5.84,5.84,0,0,1,1.68.25,6.19,6.19,0,0,1,1.49.71v-4a1.46,1.46,0,0,1,.11-.58,1.3,1.3,0,0,1,.29-.43.94.94,0,0,1,.4-.25,1.29,1.29,0,0,1,.46-.09,1.35,1.35,0,0,1,.47.09,1,1,0,0,1,.41.25,1.79,1.79,0,0,1,.29.43,1.46,1.46,0,0,1,.11.58V29.4Zm-2.53,0a3,3,0,0,0-.25-1.23,3.57,3.57,0,0,0-.68-1,3.44,3.44,0,0,0-1-.69,3,3,0,0,0-1.24-.25,2.94,2.94,0,0,0-1.23.25,3.08,3.08,0,0,0-1,.69,3.43,3.43,0,0,0-.7,1A3.18,3.18,0,0,0,131,29.4a3.11,3.11,0,0,0,.25,1.23,3.22,3.22,0,0,0,.7,1,3.28,3.28,0,0,0,1,.68,3.22,3.22,0,0,0,1.23.25,3.27,3.27,0,0,0,1.24-.25,3.06,3.06,0,0,0,1-.68,3.54,3.54,0,0,0,.68-1Z"/><path class="cls-2" d="M152.73,29.4a5.23,5.23,0,0,1-.21,1.5,5.76,5.76,0,0,1-.57,1.35,5.89,5.89,0,0,1-.89,1.15,5.53,5.53,0,0,1-1.15.89,5.76,5.76,0,0,1-1.35.57,5.46,5.46,0,0,1-3,0,5.52,5.52,0,0,1-1.34-.57,5.87,5.87,0,0,1-1.16-.89,5,5,0,0,1-.88-1.15,5.82,5.82,0,0,1-.59-1.35,5.28,5.28,0,0,1-.21-1.5,5.72,5.72,0,0,1,.45-2.22,5.72,5.72,0,0,1,5.23-3.46,5.73,5.73,0,0,1,1.68.25,6.19,6.19,0,0,1,1.49.71v-4a1.46,1.46,0,0,1,.11-.58,1.3,1.3,0,0,1,.29-.43.91.91,0,0,1,.41-.25,1.2,1.2,0,0,1,.45-.09,1.07,1.07,0,0,1,.43.09.91.91,0,0,1,.41.25,1.54,1.54,0,0,1,.29.43,1.46,1.46,0,0,1,.11.58Zm-2.51,0a3.22,3.22,0,0,0-.25-1.23,3.79,3.79,0,0,0-.68-1,3.4,3.4,0,0,0-1-.69,3.18,3.18,0,0,0-2.47,0,3.08,3.08,0,0,0-1,.69,3.23,3.23,0,0,0-.69,1,3,3,0,0,0-.25,1.23,2.94,2.94,0,0,0,.25,1.23,3,3,0,0,0,.69,1,3.41,3.41,0,0,0,1,.68,3.27,3.27,0,0,0,1.24.25,3.22,3.22,0,0,0,1.23-.25,3.37,3.37,0,0,0,1-.68,3.54,3.54,0,0,0,.68-1Z"/><path class="cls-2" d="M165.77,29.4a5.33,5.33,0,0,1-.46,2.23,6.2,6.2,0,0,1-1.23,1.83,5.77,5.77,0,0,1-1.84,1.23,5.4,5.4,0,0,1-2.23.46,5.48,5.48,0,0,1-2.24-.46,5.67,5.67,0,0,1-1.83-1.23,5.92,5.92,0,0,1-1.24-1.83,5.56,5.56,0,0,1-.46-2.23,5.73,5.73,0,0,1,.46-2.25,6.23,6.23,0,0,1,1.24-1.83A5.74,5.74,0,0,1,160,23.64a5.55,5.55,0,0,1,2.23.45,6.12,6.12,0,0,1,1.84,1.23,6,6,0,0,1,1.23,1.83Zm-2.49,0a3.15,3.15,0,0,0-.25-1.26,3.73,3.73,0,0,0-.7-1,3.36,3.36,0,0,0-1.05-.71,3.2,3.2,0,0,0-1.27-.25,3.13,3.13,0,0,0-1.27.25,3.49,3.49,0,0,0-1,.71,3.1,3.1,0,0,0-.69,1,3,3,0,0,0-.27,1.26,3.08,3.08,0,0,0,.27,1.27,3.12,3.12,0,0,0,.69,1,3.23,3.23,0,0,0,1,.7,3.16,3.16,0,0,0,1.27.25,3.23,3.23,0,0,0,1.27-.25,3.51,3.51,0,0,0,1.05-.7,3.15,3.15,0,0,0,.7-1Z"/><path class="cls-2" d="M177.35,33.81a1.5,1.5,0,0,1-.11.58,1.26,1.26,0,0,1-.29.42,1.75,1.75,0,0,1-.4.25,1.56,1.56,0,0,1-.48.08,1.38,1.38,0,0,1-.45-.08,1.33,1.33,0,0,1-.41-.25,1.26,1.26,0,0,1-.29-.42,1.5,1.5,0,0,1-.11-.58V28.74a2.72,2.72,0,0,0-.19-1,2.63,2.63,0,0,0-.56-.8,2.67,2.67,0,0,0-.81-.56,2.62,2.62,0,0,0-1-.19,2.66,2.66,0,0,0-1,.19,2.67,2.67,0,0,0-1.37,1.36,2.38,2.38,0,0,0-.21,1v5.07a1.5,1.5,0,0,1-.1.58,1.26,1.26,0,0,1-.29.42,1.18,1.18,0,0,1-.4.25,1.54,1.54,0,0,1-.46.08,1.44,1.44,0,0,1-.46-.08,1.18,1.18,0,0,1-.4-.25,1.4,1.4,0,0,1-.28-.42,1.5,1.5,0,0,1-.11-.58V28.74a4.62,4.62,0,0,1,.4-2,5.24,5.24,0,0,1,1.08-1.61,5,5,0,0,1,1.6-1.08,4.89,4.89,0,0,1,3.92,0,5,5,0,0,1,2.69,2.69,4.94,4.94,0,0,1,.4,2v5.07Z"/></svg>